#format: frame checksums
#version: 2
#hash: MD5
#extradata 0,                              16, 7d613a4daaadf19228d42c98deb26024
#tb 0: 1/25
#media_type 0: video
#codec_id 0: utvideo
#dimensions 0: 352x288
#sar 0: 0/1
#stream#, dts,        pts, duration,     size, hash
0,          0,          0,        1,    91788, 2b29ead6a04f08e49c25cd89fe0c0e46
0,          1,          1,        1,    92140, 011a3c92a1a6659b26db7de3c74cda41
0,          2,          2,        1,    93268, 69ffde2375949c0124e3f6b46a8bdf1f
0,          3,          3,        1,    91612, a34b1bbbc245a315906085aab9dca284
0,          4,          4,        1,    90456, 7a1034d99c06d9163116e05dc88de0b8
0,          5,          5,        1,    92180, cfe398abada0424f7ceab29426d27711
0,          6,          6,        1,    92200, 1335b1706618dc85d64c3d47a2bf9eab
0,          7,          7,        1,    91872, c37958d720e011c337bf87543e635791
0,          8,          8,        1,    91952, abdb95aa1c20d4724ec442d876b3ef82
0,          9,          9,        1,    92312, b346e210e76f3ac350c9026d0421c1a6
0,         10,         10,        1,    92308, 9b36f5e0085b3e4ef50e6a00aa8e9dd3
0,         11,         11,        1,    92272, 4880487b34e836fa975fc0c857cae271
0,         12,         12,        1,    90920, 924850fe3b48417160854234a60ee452
0,         13,         13,        1,    91612, 34e4e1b6114bd2eef0ac26b4c3a0be5d
0,         14,         14,        1,    93112, 34e98cc2bc42b0cdd12f3b5a8a062a14
0,         15,         15,        1,    93140, a6163289cc8450b55f82f13a8a372259
0,         16,         16,        1,    92080, 143e999836a6ebc144c707dd77ce3d6b
0,         17,         17,        1,    91816, 0fcb2542dd7e281b098f2a4a76220286
0,         18,         18,        1,    91204, fb9f7126d5c37bf48ae3cb7702fd27c5
0,         19,         19,        1,    90880, d618dad8a7c6c03091a8d72f05ff06a8
0,         20,         20,        1,    90408, e9de31ec047f7ea8aa2b781c1b8ac0cf
0,         21,         21,        1,    90280, 742f6b57e5014c85bf4ce63c3973ceb5
0,         22,         22,        1,    90808, 0bde9c976e491dbca37762af1569f05f
0,         23,         23,        1,    91584, f69c98911e98cf1b35fee8c7a17784d6
0,         24,         24,        1,    92684, 813535f3fddf27ed41475a4a16153407
0,         25,         25,        1,    91580, 99e840b30697c491a42381278b74060f
0,         26,         26,        1,    90928, 1bb430db061f5ea70f97b0808f6fd0c6
0,         27,         27,        1,    90532, 8669ea68164d3f9f6e234c24ed4ba6dd
0,         28,         28,        1,    88364, 65c5175d6c6bab9f205ae9b8d52931e8
0,         29,         29,        1,    88404, cb375b083b2d415d11111b7d0b65d499
0,         30,         30,        1,    89844, 6b29caf5d67711e4a68f9dc852c89607
0,         31,         31,        1,    90752, d1d424a5f93970e1bca8e6cc558359bc
0,         32,         32,        1,    91320, 726a9a5fb90b88961f7392028c83cff3
0,         33,         33,        1,    93204, 0ed7b1760d190df0c84f62f7ee3050c9
0,         34,         34,        1,    92036, ff3ad470d5195aa00e364f180961b852
0,         35,         35,        1,    91144, 8a7050fa18088c6dbbf148d7ae047a86
0,         36,         36,        1,    90368, 0c0252b21de41b75141085a05cdfd462
0,         37,         37,        1,    90628, 143d503a9e2ca9f5e95ba12e2237a88a
0,         38,         38,        1,    89836, 93fe7527a5681c819c6052b87bca8bb9
0,         39,         39,        1,    89792, 6c353b6ef1cc14ebdbb2de24faabcfcb
0,         40,         40,        1,    88896, ed7e33a68674399293203e4fef8db0f6
0,         41,         41,        1,    90572, d70967dd3d556559773980a776836423
0,         42,         42,        1,    90544, ee7727dd0f3833728b3c557e9775f1ef
0,         43,         43,        1,    90416, 0e4b028286b5b1f7fb902821dd015951
0,         44,         44,        1,    89788, a4e5d8715ae485f875b80ebcb150692e
0,         45,         45,        1,    88120, 9dce5bc1420f0e67abed693f75023d43
0,         46,         46,        1,    87164, 89374077f87c8d3639743e17f8583307
0,         47,         47,        1,    87632, 6ebcb11b9c0263aa82ca4797acd078ff
0,         48,         48,        1,    87696, 9941fc859d6b9e4c057c2a4b40faff98
0,         49,         49,        1,    86624, a2a157ab69d82eda4f8ab502de62ca55
